<mxfile host="65bd71144e">
    <diagram name="Page-1" id="zjjjiyY5WAwxlF9OT4a7">
        <mxGraphModel dx="2126" dy="779" grid="1" gridSize="10" guides="1" tooltips="1" connect="1" arrows="1" fold="1" page="0" pageScale="1" pageWidth="850" pageHeight="1100" background="none" math="0" shadow="0">
            <root>
                <mxCell id="0"/>
                <mxCell id="1" parent="0"/>
                <mxCell id="hZnilqOEfNkV0HFh2iKd-1" value="Linguagem de negócio" style="text;strokeColor=none;fillColor=none;html=1;fontSize=24;fontStyle=1;verticalAlign=middle;align=center;rotation=-30;" parent="1" vertex="1">
                    <mxGeometry y="210" width="100" height="40" as="geometry"/>
                </mxCell>
                <mxCell id="hZnilqOEfNkV0HFh2iKd-3" value="Linguagem dos Desenvolvedores" style="text;strokeColor=none;fillColor=none;html=1;fontSize=24;fontStyle=1;verticalAlign=middle;align=center;rotation=30;" parent="1" vertex="1">
                    <mxGeometry x="590" y="210" width="100" height="40" as="geometry"/>
                </mxCell>
                <mxCell id="hZnilqOEfNkV0HFh2iKd-4" value="" style="ellipse;shape=doubleEllipse;whiteSpace=wrap;html=1;fillColor=none;strokeColor=#82b366;" parent="1" vertex="1">
                    <mxGeometry x="30" y="230" width="460" height="280" as="geometry"/>
                </mxCell>
                <mxCell id="hZnilqOEfNkV0HFh2iKd-5" value="" style="ellipse;shape=doubleEllipse;whiteSpace=wrap;html=1;fillColor=none;strokeColor=#d6b656;shadow=0;" parent="1" vertex="1">
                    <mxGeometry x="250" y="230" width="460" height="280" as="geometry"/>
                </mxCell>
                <mxCell id="hZnilqOEfNkV0HFh2iKd-6" value="&lt;font style=&quot;font-size: 18px;&quot;&gt;Termos do Domínio que nçao são importantes para o sistema&lt;/font&gt;" style="text;html=1;strokeColor=none;fillColor=none;align=center;verticalAlign=middle;whiteSpace=wrap;rounded=0;" parent="1" vertex="1">
                    <mxGeometry x="40" y="337.5" width="200" height="65" as="geometry"/>
                </mxCell>
                <mxCell id="hZnilqOEfNkV0HFh2iKd-7" value="&lt;font style=&quot;font-size: 18px;&quot;&gt;Termos técnicos que só os devem precisam saber&lt;/font&gt;" style="text;html=1;strokeColor=none;fillColor=none;align=center;verticalAlign=middle;whiteSpace=wrap;rounded=0;" parent="1" vertex="1">
                    <mxGeometry x="500" y="337.5" width="200" height="65" as="geometry"/>
                </mxCell>
                <mxCell id="hZnilqOEfNkV0HFh2iKd-8" value="Linguagem Ubíqua" style="text;strokeColor=none;fillColor=none;html=1;fontSize=24;fontStyle=1;verticalAlign=middle;align=center;" parent="1" vertex="1">
                    <mxGeometry x="320" y="350" width="100" height="40" as="geometry"/>
                </mxCell>
            </root>
        </mxGraphModel>
    </diagram>
</mxfile>